<svg xmlns="http://www.w3.org/2000/svg" xmlns:xlink="http://www.w3.org/1999/xlink" viewBox="0 0 3000 1961.352"><defs><style>.cls-1{fill:url(#linear-gradient);}.cls-2{fill:url(#linear-gradient-2);}.cls-3{fill:#366098;}.cls-4{fill:#3546a1;}.cls-5{fill:#3abe85;}</style><linearGradient id="linear-gradient" x1="999.7201" y1="727.1702" x2="2117.466" y2="727.1702" gradientUnits="userSpaceOnUse"><stop offset="0" stop-color="#384ba5"/><stop offset="1" stop-color="#3b84cb"/></linearGradient><linearGradient id="linear-gradient-2" x1="806.436" y1="615.6054" x2="1733.6855" y2="615.6054" gradientUnits="userSpaceOnUse"><stop offset="0.1208" stop-color="#5bc47c"/><stop offset="1" stop-color="#387c90"/></linearGradient></defs><title>Solace@1.25x</title><g id="Layer_1" data-name="Layer 1"><path class="cls-1" d="M1733.6855,160.246c1.9468-1.6784,4.0533-3.2048,5.8163-5.0581,23.3926-24.591,46.8141-49.1559,70.0053-73.9359,3.2534-3.4763,6.5778-4.5587,11.108-4.5543q141.0838.1371,282.1674.0786c2.2445,0,4.489.1614,6.7335.2475l.5159,1.4514q-100.4979,104.6166-200.8757,209.108C2052.49,443.98,2111.7057,626.0113,2082.0631,836.015c-29.0709,171.8417-112.5071,311.4737-252.4038,415.0681-275.6816,204.1435-635.5506,145.825-837.3734-64.2994,1.3217-1.5324,2.6094-3.1572,4.0313-4.6546q60.8646-64.0932,121.762-128.1553,71.1741-74.7762,142.4322-149.4725,81.3963-85.5522,162.682-171.21c6.4937-6.8349,13.0666-13.5974,19.43-20.5517a11.3892,11.3892,0,0,1,9.1862-4.0775q142.8516.1585,285.7034.0956c1.5393,0,3.0786.2039,6.1554.4212-139.3609,145.0453-277.7342,289.0631-416.68,433.677a50.134,50.134,0,0,0,4.7488,1.9808,416.8127,416.8127,0,0,0,87.548,15.2679c59.16,4.1517,116.58-4.09,172.3345-24.0313a417.9517,417.9517,0,0,0,135.1571-79.3434q95.8113-83.6119,130.9127-205.8393a413.2463,413.2463,0,0,0,14.5678-81.2259,422.0124,422.0124,0,0,0-37.2175-211.36c-17.946-39.0554-41.0035-74.8425-69.9484-106.5817-41.9863-46.0394-91.1948-82.32-148.7059-106.8284-11.8935-5.0685-24.18-9.211-36.2648-13.8364-1.9285-.738-3.743-1.7734-5.6087-2.6716a3.74,3.74,0,0,1,.3817-.5939q66.4467-69.814,132.8859-139.6357C1716.5237,178.9573,1725.0557,169.555,1733.6855,160.246Z"/><path class="cls-2" d="M1733.6855,160.246c-8.63,9.309-17.1618,18.7113-25.9061,27.9114q-66.4,69.8594-132.8859,139.6357a3.7432,3.7432,0,0,0-.3817.5938c-14.637-3.5662-29.18-7.5834-43.9264-10.61a408.6254,408.6254,0,0,0-112.5377-7.0057c-59.8423,4.3815-116.604,19.9455-169.1444,48.8411-114.12,62.7624-186.5111,157.69-216.2127,284.7323-7.7659,33.2167-10.5841,66.9864-9.8229,101.0675.0368,1.6454.1215,3.2936.2924,4.929.0371.3548.5429.66,1.371,1.5983,1.9157-1.9428,3.8466-3.8392,5.71-5.8q102.5348-107.8986,205.06-215.8067c3.5718-3.7591,7.27-7.4046,10.7061-11.2833,2.0428-2.3061,4.2817-3.5113,7.3877-3.1942a48.9132,48.9132,0,0,0,4.9471.0283l277.2074-.001h7.4981l.5948,1.3727-594.81,620.4829c-1.9215-2.2035-3.47-3.8268-4.8491-5.5833q-81.3993-103.682-115.78-230.9412a628.3929,628.3929,0,0,1-21.01-194.631c6.832-139.4645,53.5431-264.1792,140.98-373.1518,73.8287-92.0134,166.4694-158.4727,276.9019-199.9168a630.7534,630.7534,0,0,1,162.817-37.1425,641.5672,641.5672,0,0,1,155.8235,4.1549A629.8918,629.8918,0,0,1,1733.6855,160.246Z"/></g><g id="Layer_2" data-name="Layer 2"><path class="cls-3" d="M1574.5118,328.387l-.9978-222.7095s79.5208,12.7061,160.1715,54.5685Z"/><path class="cls-4" d="M73.1138,1649.634c-.2022-3.4326,1.8174-5.25,5.0483-5.25H100.375c3.0288,0,4.6445,1.6153,5.25,4.8467,1.6157,7.27,7.6738,10.9043,19.5879,10.9043,13.126,0,17.3662-5.0478,17.3662-10.9043,0-8.2793-10.0967-11.914-22.4145-16.1552-19.9917-6.8653-45.2334-15.1446-45.2334-46.0411,0-28.2705,23.0205-42.4062,47.0507-42.4062,23.6265,0,46.2432,12.7217,48.6665,42.0029.2017,3.4326-1.8178,5.25-5.0488,5.25H143.3872c-3.0293,0-4.6445-1.6152-5.2505-4.8467-1.6157-7.4716-6.8657-10.9043-16.1548-10.9043-10.0966,0-14.7412,5.0489-14.7412,10.9043,0,8.4815,8.2793,12.5205,19.9917,16.7608,20.1934,7.0674,47.6563,14.3379,47.6563,45.4355,0,28.27-22.6167,42.4063-49.6758,42.4063C98.7593,1691.637,75.5371,1678.9153,73.1138,1649.634Z"/><path class="cls-4" d="M241.7324,1618.1331c0-41.5987,32.9155-73.5049,73.5044-73.5049s73.5039,31.9062,73.5039,73.5049-32.915,73.5039-73.5039,73.5039S241.7324,1659.7307,241.7324,1618.1331Zm114.6988,0c0-25.2422-18.1739-42.003-41.1944-42.003s-41.1948,16.7608-41.1948,42.003,18.1738,42.0019,41.1948,42.0019S356.4312,1643.3743,356.4312,1618.1331Z"/><path class="cls-4" d="M545.4429,1662.76v21.001c0,3.2314-1.8174,5.0488-5.0484,5.0488H469.7173c-3.231,0-5.0484-1.8174-5.0484-5.0488V1552.5042c0-3.2315,1.8174-5.0489,5.0484-5.0489H491.93c3.2309,0,5.0483,1.8174,5.0483,5.0489v105.208h43.416C543.6255,1657.7122,545.4429,1659.53,545.4429,1662.76Z"/><path class="cls-4" d="M732.4326,1688.81H707.5947c-2.8271,0-4.8462-1.2119-5.6543-4.24l-5.3125-17.9727H647.0771l-5.3129,17.9727c-.8077,3.0283-2.8272,4.24-5.6543,4.24H611.272c-3.6348,0-5.4522-2.02-4.2407-5.6543l42.81-131.459a5.6683,5.6683,0,0,1,5.8565-4.2412h32.3095a5.6677,5.6677,0,0,1,5.856,4.2412l42.81,131.459C737.8853,1686.79,736.0674,1688.81,732.4326,1688.81Zm-44.7607-52.5029-15.8194-53.5127-15.82,53.5127Z"/><path class="cls-4" d="M795.2358,1618.1331c0-41.5987,30.896-73.5049,73.5044-73.5049,32.31,0,59.7725,20.1933,68.0518,49.6758.8076,3.4336-1.01,5.6543-4.4424,5.6543H908.521c-2.8267,0-4.4424-1.4131-5.6538-4.0381-5.6543-12.3184-18.78-19.79-34.127-19.79-25.04,0-41.1948,16.7608-41.1948,42.003S843.7,1660.135,868.74,1660.135c15.3467,0,28.4727-7.4717,34.127-19.789,1.2114-2.626,2.8271-4.0391,5.6538-4.0391H932.35c3.4326,0,5.25,2.0195,4.4424,5.25-7.8755,29.4824-35.5405,50.08-68.0518,50.08C826.1318,1691.637,795.2358,1659.7307,795.2358,1618.1331Z"/><path class="cls-4" d="M1094.7051,1662.76v21.001c0,3.2314-1.8174,5.0488-5.0484,5.0488h-74.7158c-3.2309,0-5.0483-1.8174-5.0483-5.0488V1552.5042c0-3.2315,1.8174-5.0489,5.0483-5.0489h73.7061c3.2309,0,5.0483,1.8174,5.0483,5.0489v21.0009c0,3.23-1.8174,5.0479-5.0483,5.0479h-46.4449V1602.18h41.3965c3.231,0,5.0484,1.8174,5.0484,5.0479v20.1943c0,3.23-1.8174,5.0479-5.0484,5.0479h-41.3965v25.2422h47.4546C1092.8877,1657.7122,1094.7051,1659.53,1094.7051,1662.76Z"/><path class="cls-4" d="M1283.9194,1547.4553h22.2129c3.231,0,5.0484,1.8174,5.0484,5.0489V1683.761c0,3.2314-1.8174,5.0488-5.0484,5.0488h-22.2129c-3.2309,0-5.0483-1.8174-5.0483-5.0488V1552.5042C1278.8711,1549.2727,1280.6885,1547.4553,1283.9194,1547.4553Z"/><path class="cls-4" d="M1472.9307,1547.4553h22.2129c3.2309,0,5.0478,1.8174,5.0478,5.0489V1683.761c0,3.2314-1.8169,5.0488-5.0478,5.0488h-15.1451a7.0131,7.0131,0,0,1-6.26-3.2314l-48.2622-75.5235v73.7061c0,3.2314-1.8174,5.0488-5.0484,5.0488h-22.2129c-3.2309,0-5.0483-1.8174-5.0483-5.0488V1552.5042c0-3.2315,1.8174-5.0489,5.0483-5.0489H1413.36a7.0128,7.0128,0,0,1,6.26,3.2315l48.2627,75.5234v-73.706C1467.8823,1549.2727,1469.7,1547.4553,1472.9307,1547.4553Z"/><path class="cls-4" d="M1612.8721,1684.57l-40.9932-131.46c-1.01-3.4326.6055-5.6543,4.24-5.6543h24.8389c2.8262,0,4.8457,1.2119,5.6533,4.2412l28.0694,99.7549,28.0693-99.7549c.8076-3.0293,2.8271-4.2412,5.6533-4.2412h24.8389c3.6348,0,5.25,2.2217,4.24,5.6543l-40.9931,131.46a5.4444,5.4444,0,0,1-5.6534,4.24h-32.3105A5.4442,5.4442,0,0,1,1612.8721,1684.57Z"/><path class="cls-4" d="M1853.9834,1662.76v21.001c0,3.2314-1.8174,5.0488-5.0488,5.0488h-74.7158c-3.2305,0-5.0479-1.8174-5.0479-5.0488V1552.5042c0-3.2315,1.8174-5.0489,5.0479-5.0489h73.707c3.2305,0,5.0478,1.8174,5.0478,5.0489v21.0009c0,3.23-1.8173,5.0479-5.0478,5.0479h-46.4453V1602.18h41.3965c3.2314,0,5.0488,1.8174,5.0488,5.0479v20.1943c0,3.23-1.8174,5.0479-5.0488,5.0479h-41.3965v25.2422h47.4541C1852.166,1657.7122,1853.9834,1659.53,1853.9834,1662.76Z"/><path class="cls-4" d="M1922.0352,1649.634c-.2012-3.4326,1.8173-5.25,5.0488-5.25h22.2129c3.0293,0,4.6445,1.6153,5.25,4.8467,1.6152,7.27,7.6738,10.9043,19.5879,10.9043,13.1259,0,17.3662-5.0478,17.3662-10.9043,0-8.2793-10.0967-11.914-22.4151-16.1552-19.9912-6.8653-45.2334-15.1446-45.2334-46.0411,0-28.2705,23.0205-42.4062,47.0508-42.4062,23.627,0,46.2432,12.7217,48.667,42.0029.2022,3.4326-1.8174,5.25-5.0488,5.25h-22.2129c-3.0283,0-4.6445-1.6152-5.25-4.8467-1.6152-7.4716-6.8662-10.9043-16.1553-10.9043-10.0967,0-14.7412,5.0489-14.7412,10.9043,0,8.4815,8.2793,12.5205,19.9922,16.7608,20.1934,7.0674,47.6562,14.3379,47.6562,45.4355,0,28.27-22.6162,42.4063-49.6757,42.4063C1947.6816,1691.637,1924.459,1678.9153,1922.0352,1649.634Z"/><path class="cls-4" d="M2180.5146,1552.5042v21.0009c0,3.23-1.8173,5.0479-5.0488,5.0479h-27.2607v105.208c0,3.2314-1.8174,5.0488-5.0488,5.0488h-22.2129c-3.2305,0-5.0479-1.8174-5.0479-5.0488V1578.553h-27.2617c-3.2305,0-5.0479-1.8174-5.0479-5.0479v-21.0009c0-3.2315,1.8174-5.0489,5.0479-5.0489h86.832C2178.6973,1547.4553,2180.5146,1549.2727,2180.5146,1552.5042Z"/><path class="cls-4" d="M2393.76,1552.5042V1683.761c0,3.2314-1.8174,5.0488-5.0489,5.0488H2366.498c-3.23,0-5.0478-1.8174-5.0478-5.0488v-81.6094l-25.6455,60.8106a5.7177,5.7177,0,0,1-5.8565,3.8369h-13.7314a5.7175,5.7175,0,0,1-5.8564-3.8369l-25.6456-60.8106v81.6094c0,3.2314-1.8173,5.0488-5.0488,5.0488h-22.2129c-3.23,0-5.0478-1.8174-5.0478-5.0488V1552.5042c0-3.2315,1.8174-5.0489,5.0478-5.0489h27.06a5.7176,5.7176,0,0,1,5.8564,3.8369l32.7129,77.7452,32.7139-77.7452a5.7177,5.7177,0,0,1,5.8564-3.8369h27.0586C2391.9424,1547.4553,2393.76,1549.2727,2393.76,1552.5042Z"/><path class="cls-4" d="M2560.5576,1662.76v21.001c0,3.2314-1.8174,5.0488-5.0488,5.0488H2480.793c-3.2305,0-5.0479-1.8174-5.0479-5.0488V1552.5042c0-3.2315,1.8174-5.0489,5.0479-5.0489H2554.5c3.2305,0,5.0479,1.8174,5.0479,5.0489v21.0009c0,3.23-1.8174,5.0479-5.0479,5.0479h-46.4453V1602.18h41.3965c3.2314,0,5.0488,1.8174,5.0488,5.0479v20.1943c0,3.23-1.8174,5.0479-5.0488,5.0479h-41.3965v25.2422h47.4541C2558.74,1657.7122,2560.5576,1659.53,2560.5576,1662.76Z"/><path class="cls-4" d="M2716.249,1547.4553h22.2129c3.2315,0,5.0488,1.8174,5.0488,5.0489V1683.761c0,3.2314-1.8173,5.0488-5.0488,5.0488h-15.1445a7.0124,7.0124,0,0,1-6.26-3.2314l-48.2627-75.5235v73.7061c0,3.2314-1.8174,5.0488-5.0488,5.0488h-22.2129c-3.23,0-5.0478-1.8174-5.0478-5.0488V1552.5042c0-3.2315,1.8173-5.0489,5.0478-5.0489h15.1455a7.0125,7.0125,0,0,1,6.26,3.2315l48.2627,75.5234v-73.706C2711.2012,1549.2727,2713.0186,1547.4553,2716.249,1547.4553Z"/><path class="cls-4" d="M2912.3281,1552.5042v21.0009c0,3.23-1.8174,5.0479-5.0488,5.0479h-27.2607v105.208c0,3.2314-1.8174,5.0488-5.0489,5.0488h-22.2129c-3.23,0-5.0478-1.8174-5.0478-5.0488V1578.553h-27.2617c-3.23,0-5.0479-1.8174-5.0479-5.0479v-21.0009c0-3.2315,1.8174-5.0489,5.0479-5.0489h86.832C2910.5107,1547.4553,2912.3281,1549.2727,2912.3281,1552.5042Z"/><path class="cls-5" d="M82.0078,1865.8831h-14.17v-30.0147L30.481,1772.4905H47.0986L74.15,1820.0237l.9019,2.3193.9018-2.3193,27.0518-47.5332h16.2309l-37.2285,63.3779Z"/><path class="cls-5" d="M203.74,1867.1712q-21.1281,0-34.9091-13.5254-13.656-13.5264-13.6548-34.5235,0-20.7378,13.7832-34.2656,13.653-13.6524,34.7807-13.6543,21.1253,0,34.91,13.3975,13.6524,13.2686,13.6543,34.5224,0,20.6118-13.7832,34.3946Q224.865,1867.1722,203.74,1867.1712Zm0-13.2686q15.0719,0,24.4751-9.79,9.6615-9.9171,9.6617-24.99.1266-15.328-9.4039-25.1191-9.5346-9.6621-24.7329-9.6611-15.0717,0-24.7329,9.79-9.5346,9.7909-9.5322,24.99,0,15.3311,9.5322,25.1192Q188.539,1853.9036,203.74,1853.9026Z"/><path class="cls-5" d="M346.7275,1867.1712q-18.1632,0-28.8549-10.82-10.6933-11.077-10.6919-29.499v-54.3613h14.041v54.49q0,12.753,6.8276,19.9658,6.8262,7.2159,18.8071,7.2139,11.98,0,18.8077-7.2139t6.8271-19.9658v-54.49h13.9121v54.3613q0,18.422-10.6919,29.499Q365.1477,1867.1716,346.7275,1867.1712Z"/><path class="cls-5" d="M495.51,1831.6174l24.3466,34.2657H502.5952l-21.3833-32.333H461.2451v32.333H447.333v-93.3926h34.6519q16.6171,0,26.021,8.2441,9.531,8.376,9.5322,22.2852a28.6074,28.6074,0,0,1-5.7969,17.9707Q505.9449,1828.5256,495.51,1831.6174Zm-13.2681-46.1162H461.2451V1820.41h20.8682q9.7881,0,15.394-4.5732,5.6031-4.57,5.6035-12.8174,0-8.2413-5.5395-12.8809Q492.0312,1785.5012,482.2422,1785.5012Z"/><path class="cls-5" d="M646.2246,1772.4905h32.8482q21.6415,0,35.6826,13.14,14.0389,13.14,14.041,33.4922,0,20.2251-14.17,33.6211-14.1725,13.14-35.8116,13.14h-32.59Zm68.273,46.6318q.1266-14.8125-9.79-24.2177-9.7909-9.2741-25.6347-9.2745H660.1367v66.9844h18.6782q15.8445,0,25.6348-9.2744Q714.4978,1833.9387,714.4976,1819.1223Z"/><path class="cls-5" d="M833.5229,1831.6174l24.3467,34.2657H840.6079l-21.3833-32.333H799.2578v32.333H785.3457v-93.3926h34.6519q16.6171,0,26.021,8.2441,9.531,8.376,9.5322,22.2852a28.6074,28.6074,0,0,1-5.7969,17.9707Q843.9574,1828.5256,833.5229,1831.6174Zm-13.268-46.1162H799.2578V1820.41H820.126q9.7881,0,15.394-4.5732,5.6031-4.57,5.6035-12.8174,0-8.2413-5.54-12.8809Q830.0439,1785.5012,820.2549,1785.5012Z"/><path class="cls-5" d="M922.7944,1824.9192V1853.13h49.0791v12.753H908.8823v-93.3926H971.23v12.624H922.7944v27.5674h45.73v12.2373Z"/><path class="cls-5" d="M1110.74,1865.8831h-15.458l-9.0171-22.1563h-45.73l-9.0171,22.1563h-15.33l39.0317-93.3926h16.4888Zm-48.435-76.1309-16.7461,41.3506h35.6821l-16.7461-41.3506-1.1592-3.8642Z"/><path class="cls-5" d="M1174.375,1865.8831h-13.7832v-93.3926h11.98l37.3569,55.3916,37.4859-55.3916h11.98v93.3926h-13.7837v-68.0157l-32.7192,48.3067h-5.9258l-32.5908-48.1777Z"/><path class="cls-5" d="M1346.2178,1867.1712a37.9322,37.9322,0,0,1-13.2036-2.254,26.424,26.424,0,0,1-9.7261-5.8613q-6.6995-7.3433-8.5015-12.7529l-.7729-2.4473,13.01-3.8652a15.7608,15.7608,0,0,0,2.0611,5.1533q5.2807,9.7911,17.0039,9.79,8.2427,0,13.0752-3.6075a11.6971,11.6971,0,0,0,4.8305-9.9189,12.6834,12.6834,0,0,0-3.5425-9.2744q-3.5448-3.6051-11.2714-5.7969l-11.4649-3.2207q-11.2068-3.2183-16.6172-9.5967-5.41-6.3765-5.4106-16.8105,0-11.72,8.0513-18.6143,8.0486-6.8892,21.7055-6.8916a38.529,38.529,0,0,1,12.624,1.9971,24.27,24.27,0,0,1,9.0171,5.0879q6.44,5.7963,7.9869,10.5634l.644,2.0606-12.7529,4.38a13.7054,13.7054,0,0,0-1.9322-4.1221q-4.51-7.8559-15.3291-7.8584-7.4729,0-11.851,3.4141a11.0645,11.0645,0,0,0-4.38,9.2109q0,11.08,15.2,15.458l11.851,3.3486q21.7685,6.3135,21.7706,25.8926,0,12.2388-8.76,19.4512Q1360.9021,1867.1716,1346.2178,1867.1712Z"/><path class="cls-5" d="M1443.9893,1848.2346a9.1961,9.1961,0,0,1,7.5356,3.2207q2.639,3.2212,2.6406,9.1465,0,9.0147-4.7016,14.62a28.8161,28.8161,0,0,1-9.7256,7.9229l-1.6748.6435-3.3491-5.9248a14.7789,14.7789,0,0,0,3.9931-2.19q7.856-4.7665,8.1157-12.2373h-.3867q-.5163,3.2213-4.6372,3.22a6.7233,6.7233,0,0,1-5.4106-2.4472,10.58,10.58,0,0,1,.58-13.2676A9.3618,9.3618,0,0,1,1443.9893,1848.2346Z"/><path class="cls-5" d="M1628.9688,1867.1712q-21.1275,0-34.9092-13.5254-13.6552-13.5264-13.6553-34.5235,0-20.7378,13.7842-34.2656,13.6522-13.6524,34.78-13.6543,21.1245,0,34.9091,13.3975,13.6539,13.2686,13.6553,34.5224,0,20.6118-13.7842,34.3946Q1650.0938,1867.1722,1628.9688,1867.1712Zm0-13.2686q15.0717,0,24.4755-9.79,9.6608-9.9171,9.6612-24.99.126-15.328-9.4034-25.1191-9.5346-9.6621-24.7333-9.6611-15.0719,0-24.7325,9.79-9.5346,9.7909-9.5332,24.99,0,15.3311,9.5332,25.1192Q1613.7665,1853.9036,1628.9688,1853.9026Z"/><path class="cls-5" d="M1771.9561,1867.1712q-18.1626,0-28.8545-10.82-10.6948-11.077-10.6924-29.499v-54.3613h14.041v54.49q0,12.753,6.8271,19.9658,6.8262,7.2159,18.8077,7.2139,11.9795,0,18.8076-7.2139,6.8262-7.2128,6.8271-19.9658v-54.49h13.9121v54.3613q0,18.422-10.6914,29.499Q1790.3761,1867.1716,1771.9561,1867.1712Z"/><path class="cls-5" d="M1920.7383,1831.6174l24.3457,34.2657h-17.2608L1906.44,1833.55h-19.9668v32.333h-13.9122v-93.3926h34.6514q16.6171,0,26.0215,8.2441,9.5317,8.376,9.5322,22.2852a28.6109,28.6109,0,0,1-5.7968,17.9707Q1931.1724,1828.5256,1920.7383,1831.6174Zm-13.2686-46.1162h-20.997V1820.41h20.8681q9.7881,0,15.3936-4.5732,5.6045-4.57,5.6035-12.8174,0-8.2413-5.5391-12.8809Q1917.2588,1785.5012,1907.47,1785.5012Z"/><path class="cls-5" d="M2071.4521,1772.4905h33.6211q16.6173,0,26.0215,8.6309,9.53,8.5018,9.5323,23.3154,0,14.8153-9.6612,23.4453-9.5346,8.6323-26.0215,8.6309h-19.58v29.37h-13.9122Zm13.9122,50.8828h19.7089q9.7881,0,15.4581-5.0879,5.6674-5.0874,5.6679-13.8486,0-8.7584-5.6035-13.8477-5.6029-5.0874-15.3936-5.0879h-19.8378Z"/><path class="cls-5" d="M2241.4912,1831.6174l24.3457,34.2657h-17.2607l-21.3838-32.333h-19.9668v32.333h-13.9121v-93.3926h34.6513q16.6173,0,26.0215,8.2441,9.5317,8.376,9.5323,22.2852a28.611,28.611,0,0,1-5.7969,17.9707Q2251.9252,1828.5256,2241.4912,1831.6174Zm-13.2685-46.1162h-20.9971V1820.41h20.8682q9.7879,0,15.3935-4.5732,5.6044-4.57,5.6035-12.8174,0-8.2413-5.539-12.8809Q2238.0117,1785.5012,2228.2227,1785.5012Z"/><path class="cls-5" d="M2331.1494,1865.8831h-14.2988v-93.3926h14.2988Z"/><path class="cls-5" d="M2436.3916,1867.1712q-21.1275,0-34.9092-13.5254-13.6552-13.5264-13.6553-34.5235,0-20.7378,13.7842-34.2656,13.6524-13.6524,34.78-13.6543,21.1245,0,34.9092,13.3975,13.6537,13.2686,13.6553,34.5224,0,20.6118-13.7842,34.3946Q2457.5167,1867.1722,2436.3916,1867.1712Zm0-13.2686q15.0719,0,24.4756-9.79,9.6606-9.9171,9.6611-24.99.126-15.328-9.4033-25.1191-9.5346-9.6621-24.7334-9.6611-15.0717,0-24.7324,9.79-9.5347,9.7909-9.5332,24.99,0,15.3311,9.5332,25.1192Q2421.1895,1853.9036,2436.3916,1853.9026Z"/><path class="cls-5" d="M2589.8125,1831.6174l24.3457,34.2657h-17.2607l-21.3838-32.333h-19.9668v32.333h-13.9121v-93.3926h34.6513q16.6173,0,26.0215,8.2441,9.5318,8.376,9.5322,22.2852a28.6109,28.6109,0,0,1-5.7968,17.9707Q2600.2466,1828.5256,2589.8125,1831.6174Zm-13.2686-46.1162h-20.997V1820.41h20.8681q9.7881,0,15.3936-4.5732,5.6045-4.57,5.6035-12.8174,0-8.2413-5.5391-12.8809Q2586.3331,1785.5012,2576.5439,1785.5012Z"/><path class="cls-5" d="M2679.47,1865.8831h-14.2988v-93.3926H2679.47Z"/><path class="cls-5" d="M2729.3213,1772.4905h76.9033v13.2685H2774.793v80.1241h-14.17V1785.759h-31.3017Z"/><path class="cls-5" d="M2898.457,1865.8831h-14.17v-30.0147l-37.3564-63.3779h16.6172l27.0517,47.5332.9014,2.3193.9013-2.3193,27.0518-47.5332h16.2314l-37.2285,63.3779Z"/></g></svg>